<?xml version="1.0" encoding="UTF-8" standalone="no"?>
<!-- Created with Inkscape (http://www.inkscape.org/) -->

<svg
   width="640"
   height="256"
   viewBox="0 0 640 256"
   version="1.1"
   id="svg1"
   inkscape:version="1.3.2 (091e20e, 2023-11-25, custom)"
   sodipodi:docname="logo-and-name.svg"
   xml:space="preserve"
   xmlns:inkscape="http://www.inkscape.org/namespaces/inkscape"
   xmlns:sodipodi="http://sodipodi.sourceforge.net/DTD/sodipodi-0.dtd"
   xmlns="http://www.w3.org/2000/svg"
   xmlns:svg="http://www.w3.org/2000/svg"><sodipodi:namedview
     id="namedview1"
     pagecolor="#ffffff"
     bordercolor="#666666"
     borderopacity="1.0"
     inkscape:showpageshadow="2"
     inkscape:pageopacity="0.0"
     inkscape:pagecheckerboard="0"
     inkscape:deskcolor="#d1d1d1"
     inkscape:document-units="mm"
     inkscape:zoom="1.2719193"
     inkscape:cx="337.28554"
     inkscape:cy="158.422"
     inkscape:window-width="1366"
     inkscape:window-height="705"
     inkscape:window-x="-8"
     inkscape:window-y="-8"
     inkscape:window-maximized="1"
     inkscape:current-layer="layer3"
     inkscape:lockguides="false"
     showgrid="false" /><defs
     id="defs1"><inkscape:path-effect
       effect="skeletal"
       id="path-effect17"
       is_visible="true"
       lpeversion="1"
       pattern="M 0,4.9921384 C 0,2.236478 2.236478,0 4.9921384,0 c 2.7556603,0 4.9921383,2.236478 4.9921383,4.9921384 0,2.7556603 -2.236478,4.9921383 -4.9921383,4.9921383 C 2.236478,9.9842767 0,7.7477987 0,4.9921384 Z"
       copytype="single_stretched"
       prop_scale="1"
       scale_y_rel="false"
       spacing="0"
       normal_offset="0"
       tang_offset="0"
       prop_units="false"
       vertical_pattern="false"
       hide_knot="false"
       fuse_tolerance="0" /><inkscape:path-effect
       effect="skeletal"
       id="path-effect16"
       is_visible="true"
       lpeversion="1"
       pattern="M 0,4.9921384 C 0,2.236478 2.236478,0 4.9921384,0 c 2.7556603,0 4.9921383,2.236478 4.9921383,4.9921384 0,2.7556603 -2.236478,4.9921383 -4.9921383,4.9921383 C 2.236478,9.9842767 0,7.7477987 0,4.9921384 Z"
       copytype="single_stretched"
       prop_scale="1"
       scale_y_rel="false"
       spacing="0"
       normal_offset="0"
       tang_offset="0"
       prop_units="false"
       vertical_pattern="false"
       hide_knot="false"
       fuse_tolerance="0" /><inkscape:path-effect
       effect="skeletal"
       id="path-effect15"
       is_visible="true"
       lpeversion="1"
       pattern="M 0,4.9921384 C 0,2.236478 2.236478,0 4.9921384,0 c 2.7556603,0 4.9921383,2.236478 4.9921383,4.9921384 0,2.7556603 -2.236478,4.9921383 -4.9921383,4.9921383 C 2.236478,9.9842767 0,7.7477987 0,4.9921384 Z"
       copytype="single_stretched"
       prop_scale="1"
       scale_y_rel="false"
       spacing="0"
       normal_offset="0"
       tang_offset="0"
       prop_units="false"
       vertical_pattern="false"
       hide_knot="false"
       fuse_tolerance="0" /><inkscape:path-effect
       effect="skeletal"
       id="path-effect12"
       is_visible="true"
       lpeversion="1"
       pattern="M 0,4.9921384 C 0,2.236478 2.236478,0 4.9921384,0 c 2.7556603,0 4.9921383,2.236478 4.9921383,4.9921384 0,2.7556603 -2.236478,4.9921383 -4.9921383,4.9921383 C 2.236478,9.9842767 0,7.7477987 0,4.9921384 Z"
       copytype="single_stretched"
       prop_scale="1"
       scale_y_rel="false"
       spacing="0"
       normal_offset="0"
       tang_offset="0"
       prop_units="false"
       vertical_pattern="false"
       hide_knot="false"
       fuse_tolerance="0" /><inkscape:path-effect
       effect="spiro"
       id="path-effect11"
       is_visible="true"
       lpeversion="1" /><inkscape:path-effect
       effect="skeletal"
       id="path-effect10"
       is_visible="true"
       lpeversion="1"
       pattern="M 0,4.9921384 C 0,2.236478 2.236478,0 4.9921384,0 c 2.7556603,0 4.9921383,2.236478 4.9921383,4.9921384 0,2.7556603 -2.236478,4.9921383 -4.9921383,4.9921383 C 2.236478,9.9842767 0,7.7477987 0,4.9921384 Z"
       copytype="single_stretched"
       prop_scale="1"
       scale_y_rel="false"
       spacing="0"
       normal_offset="0"
       tang_offset="0"
       prop_units="false"
       vertical_pattern="false"
       hide_knot="false"
       fuse_tolerance="0" /><inkscape:path-effect
       effect="bspline"
       id="path-effect9"
       is_visible="true"
       lpeversion="1.3"
       weight="33.333333"
       steps="2"
       helper_size="0"
       apply_no_weight="true"
       apply_with_weight="true"
       only_selected="false"
       uniform="false" /><inkscape:path-effect
       effect="skeletal"
       id="path-effect8"
       is_visible="true"
       lpeversion="1"
       pattern="M 0,4.9921384 C 0,2.236478 2.236478,0 4.9921384,0 c 2.7556603,0 4.9921383,2.236478 4.9921383,4.9921384 0,2.7556603 -2.236478,4.9921383 -4.9921383,4.9921383 C 2.236478,9.9842767 0,7.7477987 0,4.9921384 Z"
       copytype="single_stretched"
       prop_scale="1"
       scale_y_rel="false"
       spacing="0"
       normal_offset="0"
       tang_offset="0"
       prop_units="false"
       vertical_pattern="false"
       hide_knot="false"
       fuse_tolerance="0" /><inkscape:path-effect
       effect="bspline"
       id="path-effect7"
       is_visible="true"
       lpeversion="1.3"
       weight="33.333333"
       steps="2"
       helper_size="0"
       apply_no_weight="true"
       apply_with_weight="true"
       only_selected="false"
       uniform="false" /><inkscape:path-effect
       effect="skeletal"
       id="path-effect6"
       is_visible="true"
       lpeversion="1"
       pattern="M 0,4.9921384 C 0,2.236478 2.236478,0 4.9921384,0 c 2.7556603,0 4.9921383,2.236478 4.9921383,4.9921384 0,2.7556603 -2.236478,4.9921383 -4.9921383,4.9921383 C 2.236478,9.9842767 0,7.7477987 0,4.9921384 Z"
       copytype="single_stretched"
       prop_scale="1"
       scale_y_rel="false"
       spacing="0"
       normal_offset="0"
       tang_offset="0"
       prop_units="false"
       vertical_pattern="false"
       hide_knot="false"
       fuse_tolerance="0" /><inkscape:path-effect
       effect="bspline"
       id="path-effect5"
       is_visible="true"
       lpeversion="1.3"
       weight="33.333333"
       steps="2"
       helper_size="0"
       apply_no_weight="true"
       apply_with_weight="true"
       only_selected="false"
       uniform="false" /><inkscape:path-effect
       effect="skeletal"
       id="path-effect4"
       is_visible="true"
       lpeversion="1"
       pattern="M 0,4.9921384 C 0,2.236478 2.236478,0 4.9921384,0 c 2.7556603,0 4.9921383,2.236478 4.9921383,4.9921384 0,2.7556603 -2.236478,4.9921383 -4.9921383,4.9921383 C 2.236478,9.9842767 0,7.7477987 0,4.9921384 Z"
       copytype="single_stretched"
       prop_scale="1"
       scale_y_rel="false"
       spacing="0"
       normal_offset="0"
       tang_offset="0"
       prop_units="false"
       vertical_pattern="false"
       hide_knot="false"
       fuse_tolerance="0" /><inkscape:path-effect
       effect="bspline"
       id="path-effect3"
       is_visible="true"
       lpeversion="1.3"
       weight="33.333333"
       steps="2"
       helper_size="0"
       apply_no_weight="true"
       apply_with_weight="true"
       only_selected="false"
       uniform="false" /><inkscape:path-effect
       effect="skeletal"
       id="path-effect2"
       is_visible="true"
       lpeversion="1"
       pattern="M 0,4.9921384 C 0,2.236478 2.236478,0 4.9921384,0 c 2.7556603,0 4.9921383,2.236478 4.9921383,4.9921384 0,2.7556603 -2.236478,4.9921383 -4.9921383,4.9921383 C 2.236478,9.9842767 0,7.7477987 0,4.9921384 Z"
       copytype="single_stretched"
       prop_scale="1"
       scale_y_rel="false"
       spacing="0"
       normal_offset="0"
       tang_offset="0"
       prop_units="false"
       vertical_pattern="false"
       hide_knot="false"
       fuse_tolerance="0" /><inkscape:path-effect
       effect="spiro"
       id="path-effect1"
       is_visible="true"
       lpeversion="1" /><rect
       x="646.16559"
       y="255.81981"
       width="557.95184"
       height="436.65796"
       id="rect4" /></defs><g
     inkscape:label="log"
     inkscape:groupmode="layer"
     id="layer1"
     style="display:inline"
     transform="translate(-136.36886,-26.37428)" /><g
     inkscape:groupmode="layer"
     id="layer2"
     inkscape:label="name"
     style="display:inline" /><g
     inkscape:groupmode="layer"
     id="layer3"
     inkscape:label="language"
     style="display:inline"
     transform="translate(-136.36886,-26.37428)"><path
       id="rect1"
       style="display:inline;vector-effect:non-scaling-stroke;fill:#dbb880;fill-opacity:1;stroke-width:1.31137;-inkscape-stroke:hairline"
       inkscape:label="background"
       d="m 356.52852,111.37624 v 85.99609 h 391.30274 0.7168 8.05468 a 110.04618,110.04618 0 0 0 8.79883,-42.64063 110.04618,110.04618 0 0 0 -8.92773,-43.35546 h -7.92578 -0.7168 z" /><text
       xml:space="preserve"
       style="font-style:normal;font-weight:normal;font-size:72px;line-height:1.25;font-family:sans-serif;display:inline;fill:#381b00;fill-opacity:1;stroke:none"
       x="405.3598"
       y="172.74342"
       id="text1"
       inkscape:label="name"><tspan
         sodipodi:role="line"
         id="tspan1"
         x="405.3598"
         y="172.74342"
         style="font-style:normal;font-variant:normal;font-weight:bold;font-stretch:normal;font-size:72px;font-family:'Segoe UI';-inkscape-font-specification:'Segoe UI Bold';fill:#381b00;fill-opacity:1">stumpless</tspan></text><circle
       style="display:inline;fill:#dbb880;fill-opacity:1;stroke:#98510f;stroke-width:9.90764;stroke-dasharray:none;stroke-opacity:1"
       id="path2-7"
       inkscape:label="trunk"
       cy="154.73108"
       cx="264.05295"
       r="110.04618" /><path
       style="display:inline;fill:#98510f;fill-opacity:1;stroke:none;stroke-width:0.264583px;stroke-linecap:butt;stroke-linejoin:miter;stroke-opacity:1"
       d="m 265.80962,162.45606 5.47029,-4.37623 12.25343,-3.57392 -12.32637,1.31287 -9.91945,-5.61616 6.92903,7.80427 z"
       id="path5"
       inkscape:label="crack" /><g
       id="g28"
       inkscape:label="bumps"
       style="display:inline"
       transform="translate(10.967288,12.643197)"><path
         id="path20"
         style="vector-effect:non-scaling-stroke;fill:#98510f;stroke-width:0.264583;-inkscape-stroke:hairline"
         d="m 289.56014,32.829855 c 0.79078,1.173486 -1.03896,0.888243 -10.47157,-0.911446 -9.43261,-1.799689 -10.31348,-2.332229 -8.54449,-3.612303 1.76899,-1.280074 4.88473,-1.959597 6.40218,-1.930956 1.51745,0.02864 2.82542,-0.06877 5.05153,0.480245 2.22611,0.549018 2.45586,0.631059 4.19748,2.118067 1.74163,1.487008 2.57409,2.682907 3.36487,3.856393 z"
         sodipodi:nodetypes="zzzzzzz"
         inkscape:label="bump-4" /><path
         id="path21"
         style="vector-effect:non-scaling-stroke;fill:#98510f;stroke-width:0.264583;-inkscape-stroke:hairline"
         d="m 271.11619,28.075101 c 1.81723,1.041768 -1.48838,0.738552 -5.66726,0.294678 -3.9348,-0.417949 -5.80308,-0.579851 -4.82617,-1.119515 0.91548,-0.505734 4.24485,-0.821074 5.7322,-0.631662 1.48735,0.189412 2.944,0.414731 4.76123,1.456499 z"
         sodipodi:nodetypes="zsszz"
         inkscape:label="bump-3" /><path
         id="path22"
         style="vector-effect:non-scaling-stroke;fill:#98510f;stroke-width:0.264583;-inkscape-stroke:hairline"
         d="m 367.36868,159.99488 c -0.13365,1.0596 -0.11791,1.7839 -0.97827,2.97317 -0.86035,1.18927 -1.58955,3.50038 -0.44118,-3.16499 1.14837,-6.66537 0.92747,-3.89604 1.20845,-2.66625 0.28098,1.22979 0.34465,1.79847 0.211,2.85807 z"
         sodipodi:nodetypes="zzzzz"
         inkscape:label="bump-2" /><path
         id="path23"
         style="vector-effect:non-scaling-stroke;fill:#98510f;stroke-width:0.264583;-inkscape-stroke:hairline"
         d="m 354.4402,198.81872 c -0.90074,1.09102 -2.47105,2.90258 -3.74044,3.43354 -1.26939,0.53096 -1.82484,-0.2898 2.39771,-7.76861 4.22255,-7.47881 4.85388,-6.9861 5.15989,-6.11897 0.30601,0.86713 0.35961,2.21021 0.20309,3.08145 -0.15654,0.87123 -0.63225,2.22862 -1.28259,3.2026 -0.65033,0.97398 -1.83691,3.07898 -2.73765,4.16999 z"
         sodipodi:nodetypes="zzzzzzzz"
         inkscape:label="bump-1" /><path
         id="path24"
         style="vector-effect:non-scaling-stroke;fill:#98510f;stroke-width:0.264583;-inkscape-stroke:hairline"
         d="m 332.67439,227.68675 c -5.93492,3.15169 -4.37174,2.79638 -10.70225,3.69304 -6.33051,0.89666 -4.84156,-0.86688 10.40078,-14.24456 15.24234,-13.37768 13.78975,-12.45276 13.86772,-9.87321 0.13213,4.37134 -0.49288,8.15158 -3.4137,11.84074 -2.92082,3.68916 -4.21763,5.43229 -10.15255,8.58399 z"
         sodipodi:nodetypes="zzzszz"
         inkscape:label="bump-5" /><path
         id="path25"
         style="vector-effect:non-scaling-stroke;fill:#98510f;stroke-width:0.264583;-inkscape-stroke:hairline"
         d="m 173.64791,216.68304 c 5.92378,6.47974 22.60032,19.60646 36.48706,24.93767 13.88674,5.33121 15.69647,10.39717 15.06466,10.71139 -0.63181,0.31422 -2.50824,0.85457 -4.38252,0.83661 -1.87429,-0.018 -3.9585,-0.16367 -5.20548,-0.36939 -0.93804,-0.15475 -4.17031,-0.51174 -5.49942,-0.707 -1.3291,-0.19526 -2.19827,-1.71809 -2.77366,-1.99273 -0.5754,-0.27463 -7.53557,-0.23866 -11.94509,-4.28309 -4.40953,-4.04442 -6.93293,-3.3813 -10.14689,-5.57764 -3.21396,-2.19634 -4.49853,-5.67566 -4.81554,-5.9197 -1.46425,-1.12718 -5.05227,-2.91528 -9.61098,-7.34161 -4.4109,-4.28281 -8.28787,-8.41549 -10.13544,-16.55006 -1.57008,-6.91282 7.03951,-0.2242 12.9633,6.25555 z"
         sodipodi:nodetypes="zzzzszzzzsssz"
         inkscape:label="bump-6" /><path
         id="path26"
         style="vector-effect:non-scaling-stroke;fill:#98510f;stroke-width:0.264583;-inkscape-stroke:hairline"
         d="m 143.15804,144.38712 c 0.54508,21.34681 0.62582,20.48089 -1.63877,19.37257 -1.20748,-0.59096 -2.70244,-1.36399 -3.45532,-5.99893 -0.51,-3.13971 -1.69509,-6.87203 -1.69509,-12.20309 0,-3.34087 1.27853,-6.90122 1.53233,-9.34129 0.28012,-2.69318 0.005,-4.35178 0.30958,-6.40719 0.30362,-2.04616 1.18574,-4.49293 2.37206,-5.49697 1.92451,-1.6288 2.03013,-1.27191 2.57521,20.0749 z"
         sodipodi:nodetypes="zssssssz"
         inkscape:label="bump-7" /><path
         id="path27"
         style="vector-effect:non-scaling-stroke;fill:#98510f;stroke-width:0.264583;-inkscape-stroke:hairline"
         transform="rotate(47.630937)"
         d="m 163.90319,-98.285797 c -1.26406,11.47682 -1.70223,12.882405 -2.16828,12.261733 -0.46605,-0.620672 -1.52609,-4.45621 -1.63999,-5.72401 -0.1139,-1.2678 -0.10578,-2.364703 -0.2002,-3.92316 -0.0798,-1.317255 -0.0706,-2.760427 0.03,-3.846623 0.10053,-1.086193 0.71404,-2.610483 0.77577,-3.359393 0.0615,-0.74609 -0.005,-1.82632 0.20398,-2.72605 0.20907,-0.89973 1.71826,-3.5014 1.84144,-3.50139 0.36567,5e-5 2.42136,-0.65793 1.1573,10.818893 z"
         sodipodi:nodetypes="zzzszszsz"
         inkscape:label="bump-8" /></g><path
       style="display:inline;fill:none;fill-opacity:1;stroke:#381b00;stroke-width:21;stroke-linecap:butt;stroke-dasharray:none;stroke-opacity:1"
       id="path3"
       sodipodi:type="arc"
       sodipodi:cx="266.02628"
       sodipodi:cy="154.73235"
       sodipodi:rx="62.142437"
       sodipodi:ry="62.725933"
       sodipodi:start="0.77911611"
       sodipodi:end="5.4148471"
       sodipodi:arc-type="arc"
       d="m 310.24279,198.80677 a 62.142437,62.725933 0 0 1 -86.73696,1.66879 62.142437,62.725933 0 0 1 -3.86885,-87.48017 62.142437,62.725933 0 0 1 86.53926,-6.13901"
       sodipodi:open="true"
       inkscape:label="letter" /></g></svg>
